<svg xmlns="http://www.w3.org/2000/svg" xmlns:xlink="http://www.w3.org/1999/xlink" viewBox="0 0 158.57 169.94"><defs><style>.cls-1{fill:#d92c15;}.cls-2{fill:#be5499;}.cls-3{fill:url(#Degradado_sin_nombre_9);}.cls-4{fill:url(#Degradado_sin_nombre_9-2);}.cls-5{fill:url(#Degradado_sin_nombre_9-3);}.cls-6{fill:url(#Degradado_sin_nombre_9-4);}.cls-7{fill:url(#Degradado_sin_nombre_9-5);}.cls-8{fill:url(#Degradado_sin_nombre_9-6);}.cls-9{fill:url(#Degradado_sin_nombre_9-7);}.cls-10{fill:url(#Degradado_sin_nombre_9-8);}.cls-11{fill:url(#Degradado_sin_nombre_9-9);}.cls-12{fill:url(#Degradado_sin_nombre_9-10);}.cls-13{fill:url(#Degradado_sin_nombre_9-11);}.cls-14{fill:url(#Degradado_sin_nombre_9-12);}.cls-15{fill:url(#Degradado_sin_nombre_9-13);}.cls-16{fill:url(#Degradado_sin_nombre_9-14);}.cls-17{fill:url(#Degradado_sin_nombre_9-15);}.cls-18{fill:url(#Degradado_sin_nombre_9-16);}.cls-19{fill:url(#Degradado_sin_nombre_9-17);}.cls-20{fill:url(#Degradado_sin_nombre_9-18);}.cls-21{fill:url(#Degradado_sin_nombre_9-19);}.cls-22{fill:url(#Degradado_sin_nombre_9-20);}.cls-23{fill:url(#Degradado_sin_nombre_9-21);}.cls-24{fill:url(#Degradado_sin_nombre_9-22);}.cls-25{fill:url(#Degradado_sin_nombre_9-23);}.cls-26{fill:url(#Degradado_sin_nombre_9-24);}.cls-27{fill:url(#Degradado_sin_nombre_9-25);}.cls-28{fill:url(#Degradado_sin_nombre_9-26);}.cls-29{fill:url(#Degradado_sin_nombre_9-27);}.cls-30{fill:url(#Degradado_sin_nombre_9-28);}.cls-31{fill:url(#Degradado_sin_nombre_9-29);}.cls-32{fill:url(#Degradado_sin_nombre_9-30);}.cls-33{fill:url(#Degradado_sin_nombre_9-31);}.cls-34{fill:url(#Degradado_sin_nombre_9-32);}.cls-35{fill:url(#Degradado_sin_nombre_9-33);}</style><linearGradient id="Degradado_sin_nombre_9" x1="2.37" y1="131.24" x2="128.39" y2="131.24" gradientUnits="userSpaceOnUse"><stop offset="0" stop-color="#d92c15"/><stop offset="0.29" stop-color="#ed7114"/><stop offset="1" stop-color="#be5499"/></linearGradient><linearGradient id="Degradado_sin_nombre_9-2" x1="0" y1="140.29" x2="110.83" y2="140.29" xlink:href="#Degradado_sin_nombre_9"/><linearGradient id="Degradado_sin_nombre_9-3" x1="81.72" y1="119.06" x2="127.02" y2="119.06" xlink:href="#Degradado_sin_nombre_9"/><linearGradient id="Degradado_sin_nombre_9-4" x1="19.96" y1="118.98" x2="78.29" y2="118.98" xlink:href="#Degradado_sin_nombre_9"/><linearGradient id="Degradado_sin_nombre_9-5" x1="27.44" y1="82.23" x2="87.62" y2="82.23" xlink:href="#Degradado_sin_nombre_9"/><linearGradient id="Degradado_sin_nombre_9-6" x1="13.24" y1="157" x2="55.04" y2="157" xlink:href="#Degradado_sin_nombre_9"/><linearGradient id="Degradado_sin_nombre_9-7" x1="74.5" y1="157.01" x2="115.59" y2="157.01" xlink:href="#Degradado_sin_nombre_9"/><linearGradient id="Degradado_sin_nombre_9-8" x1="40.36" y1="108.28" x2="105.57" y2="108.28" xlink:href="#Degradado_sin_nombre_9"/><linearGradient id="Degradado_sin_nombre_9-9" x1="30.5" y1="61.08" x2="95.5" y2="61.08" xlink:href="#Degradado_sin_nombre_9"/><linearGradient id="Degradado_sin_nombre_9-10" x1="63.11" y1="89.01" x2="115.6" y2="89.01" xlink:href="#Degradado_sin_nombre_9"/><linearGradient id="Degradado_sin_nombre_9-11" x1="25.06" y1="70.98" x2="77.64" y2="70.98" xlink:href="#Degradado_sin_nombre_9"/><linearGradient id="Degradado_sin_nombre_9-12" x1="37.41" y1="97.76" x2="96.58" y2="97.76" xlink:href="#Degradado_sin_nombre_9"/><linearGradient id="Degradado_sin_nombre_9-13" x1="67.29" y1="114.68" x2="115.59" y2="114.68" xlink:href="#Degradado_sin_nombre_9"/><linearGradient id="Degradado_sin_nombre_9-14" x1="36.96" y1="46.55" x2="91.82" y2="46.55" xlink:href="#Degradado_sin_nombre_9"/><linearGradient id="Degradado_sin_nombre_9-15" x1="12.65" y1="129.89" x2="65.76" y2="129.89" xlink:href="#Degradado_sin_nombre_9"/><linearGradient id="Degradado_sin_nombre_9-16" x1="58.28" y1="36.76" x2="87.61" y2="36.76" xlink:href="#Degradado_sin_nombre_9"/><linearGradient id="Degradado_sin_nombre_9-17" x1="53.88" y1="89.47" x2="81.23" y2="89.47" xlink:href="#Degradado_sin_nombre_9"/><linearGradient id="Degradado_sin_nombre_9-18" x1="65.96" y1="156.4" x2="74.67" y2="156.4" xlink:href="#Degradado_sin_nombre_9"/><linearGradient id="Degradado_sin_nombre_9-19" x1="57.4" y1="156.4" x2="64.81" y2="156.4" xlink:href="#Degradado_sin_nombre_9"/><linearGradient id="Degradado_sin_nombre_9-20" x1="48.49" y1="113.93" x2="73.71" y2="113.93" xlink:href="#Degradado_sin_nombre_9"/><linearGradient id="Degradado_sin_nombre_9-21" x1="89.51" y1="71.96" x2="107.5" y2="71.96" xlink:href="#Degradado_sin_nombre_9"/><linearGradient id="Degradado_sin_nombre_9-22" x1="88.76" y1="81.41" x2="112.37" y2="81.41" xlink:href="#Degradado_sin_nombre_9"/><linearGradient id="Degradado_sin_nombre_9-23" x1="21.61" y1="85.71" x2="43" y2="85.71" xlink:href="#Degradado_sin_nombre_9"/><linearGradient id="Degradado_sin_nombre_9-24" x1="49.97" y1="26.9" x2="72.68" y2="26.9" xlink:href="#Degradado_sin_nombre_9"/><linearGradient id="Degradado_sin_nombre_9-25" x1="8.43" y1="112.42" x2="20.23" y2="112.42" xlink:href="#Degradado_sin_nombre_9"/><linearGradient id="Degradado_sin_nombre_9-26" x1="23.25" y1="122.07" x2="39.21" y2="122.07" xlink:href="#Degradado_sin_nombre_9"/><linearGradient id="Degradado_sin_nombre_9-27" x1="53.92" y1="18.11" x2="65.27" y2="18.11" xlink:href="#Degradado_sin_nombre_9"/><linearGradient id="Degradado_sin_nombre_9-28" x1="62.91" y1="9.66" x2="77.33" y2="9.66" xlink:href="#Degradado_sin_nombre_9"/><linearGradient id="Degradado_sin_nombre_9-29" x1="113.05" y1="140.29" x2="130.14" y2="140.29" xlink:href="#Degradado_sin_nombre_9"/><linearGradient id="Degradado_sin_nombre_9-30" x1="15.6" y1="114.1" x2="31.57" y2="114.1" xlink:href="#Degradado_sin_nombre_9"/><linearGradient id="Degradado_sin_nombre_9-31" x1="76.2" y1="26.15" x2="81.22" y2="26.15" xlink:href="#Degradado_sin_nombre_9"/><linearGradient id="Degradado_sin_nombre_9-32" x1="45.22" y1="40.13" x2="58.55" y2="40.13" xlink:href="#Degradado_sin_nombre_9"/><linearGradient id="Degradado_sin_nombre_9-33" x1="69.38" y1="30.9" x2="77.01" y2="30.9" xlink:href="#Degradado_sin_nombre_9"/></defs><g id="Capa_2" data-name="Capa 2"><g id="Capa_2-2" data-name="Capa 2"><path class="cls-1" d="M94.21,168.54V158h4.67a3.62,3.62,0,0,1,2.66,1.09,3.5,3.5,0,0,1,1.1,2.57,3.46,3.46,0,0,1-.58,1.91,3.25,3.25,0,0,1-1.54,1.25l2.27,3.77h-2.42l-2.11-3.48H96.48v3.48Zm4.67-5.45a1.54,1.54,0,0,0,1.56-1.56,1.46,1.46,0,0,0-.45-1.09,1.51,1.51,0,0,0-1.11-.45h-2.4v3.1Z"/><path class="cls-1" d="M104.08,166.42V158h7.67v2.1h-5.4v2.17h4.8v2.06h-4.8v2.16h5.4v2.1h-6.43Z"/><path class="cls-1" d="M113.19,166.52V158h4a5.3,5.3,0,0,1,3.84,1.53,4.18,4.18,0,0,1,1.59,2.66c0,.75,0,1.13,0,1.15a5,5,0,0,1-1.58,3.73,5.33,5.33,0,0,1-3.86,1.52h-2.81Zm4-.1a3.06,3.06,0,0,0,3.21-3.17,3.07,3.07,0,0,0-.89-2.29,3.11,3.11,0,0,0-2.32-.89h-1.72v6.35Z"/><path class="cls-2" d="M126.21,168.54V158h4.68a3.62,3.62,0,0,1,2.66,1.09,3.5,3.5,0,0,1,1.1,2.57,3.37,3.37,0,0,1-1.09,2.55,3.76,3.76,0,0,1-2.67,1.05l-2.39,0v3.31Zm2.29-5.34h2.24a1.71,1.71,0,0,0,1.23-.49,1.59,1.59,0,0,0,.48-1.17,1.43,1.43,0,0,0-.48-1.1,1.73,1.73,0,0,0-1.23-.44l-2.24,0Z"/><path class="cls-2" d="M135.93,168.54V158h2.29v10.59Z"/><path class="cls-2" d="M142.16,158l4.83,7.13V158h2.19v10.59H147l-4.84-7.14v7.14h-2.2V158Z"/><path class="cls-2" d="M150.89,166.43V158h7.68v2.1h-5.41v2.17H158v2.06h-4.8v2.16h5.41v2.1h-6.44Z"/></g><g id="Capa_1-2" data-name="Capa 1"><path class="cls-3" d="M4,136.34a2.45,2.45,0,0,0,2.81-.82.76.76,0,0,1,.77-.37H128.39a.91.91,0,0,0-.2-.52c-.73-1.32-1.47-2.65-2.22-4a.84.84,0,0,1,0-1,2.47,2.47,0,0,0-1.13-3.48,2.51,2.51,0,1,0-1.71,4.7,2.39,2.39,0,0,0,1.54-.07c.15-.06.25-.05.34.1l1.77,3.2H7.81c-.4,0-.4,0-.45-.42A2.5,2.5,0,1,0,4,136.34Z"/><path class="cls-4" d="M106,141.25a2.49,2.49,0,0,0,4.8-1,2.5,2.5,0,0,0-4.83-.92c-.17.41-.17.41-.58.41H5.36c-.3.05-.41-.09-.52-.36a2.44,2.44,0,0,0-2.52-1.63,2.51,2.51,0,1,0,.62,5,2.43,2.43,0,0,0,1.93-1.65c.08-.24.19-.35.44-.32a1.47,1.47,0,0,0,.21,0h99.8A.62.62,0,0,1,106,141.25Z"/><path class="cls-5" d="M92.94,113.17a2.51,2.51,0,0,0-2.85-1.51,2.51,2.51,0,0,0,0,4.91,2.51,2.51,0,0,0,2.84-1.52c.18-.44.18-.44.66-.44h25.71a.76.76,0,0,1,.75.41c1.63,2.7,3.28,5.38,4.92,8.07.07.11.19.2.15.42H86.91a.24.24,0,0,1-.27-.19,1.38,1.38,0,0,0-.12-.34,2.51,2.51,0,1,0-3.58,3.19,2.5,2.5,0,0,0,3.63-1.27c.11-.29.23-.43.54-.38H127c-.14-.24-.23-.41-.33-.57-2-3.28-4-6.55-6-9.84a.87.87,0,0,0-.86-.48H93.64C93.13,113.63,93.13,113.63,92.94,113.17Z"/><path class="cls-6" d="M21.76,109.5a2.44,2.44,0,0,0,2.78-1,.69.69,0,0,1,.71-.36c1.95,0,3.9,0,5.85,0a1.32,1.32,0,0,1,1,.39q8.59,8.06,17.21,16.09a1.18,1.18,0,0,0,.87.35H76.78c.53,0,.49,0,.49.47v4.49c0,.54,0,.48-.47.49H72.05c-.43,0-.43,0-.59-.39a2.52,2.52,0,0,0-4.86,1,2.53,2.53,0,0,0,2.15,2.4,2.5,2.5,0,0,0,2.69-1.54c.19-.44.19-.44.66-.44h5.7c.49,0,.49,0,.49-.48v-6.32c0-.77.1-.67-.66-.67h-27a1.38,1.38,0,0,1-1-.39c-5.71-5.36-11.45-10.7-17.16-16.06a1.28,1.28,0,0,0-.93-.36c-2,0-4,0-6,0h-.37c-.12,0-.2,0-.22-.17a2.87,2.87,0,0,0,0-.31,2.5,2.5,0,1,0-3.16,2.87Z"/><path class="cls-7" d="M32.62,97.4c.11-.08.21-.18.32-.27q8.27-7,16.53-14a1.81,1.81,0,0,0,.54-.8c.4-1.13.82-2.26,1.23-3.38l2-5.49c.15-.41.15-.41.59-.42H78.7a1.1,1.1,0,0,0,.86-.35c1.42-1.44,2.86-2.86,4.28-4.3a.79.79,0,0,1,.81-.28,2.32,2.32,0,0,0,2.47-1,2.35,2.35,0,0,0,.2-2.61,2.29,2.29,0,0,0-1.91-1.35,2.58,2.58,0,0,0-2.53,1.34,2.43,2.43,0,0,0,.21,2.66c.23.33.24.33,0,.61-1.29,1.29-2.59,2.58-3.87,3.88a1.19,1.19,0,0,1-1,.4h-25c-.69,0-.53-.06-.75.55-1.12,3.06-2.24,6.14-3.36,9.21a1.47,1.47,0,0,1-.46.67q-8.31,7-16.61,14.1c-.4.33-.4.33-.85.07A2.51,2.51,0,1,0,30,101.31a2.48,2.48,0,0,0,2.37-3.14A.58.58,0,0,1,32.62,97.4Z"/><path class="cls-8" d="M54.58,144.09H20.46a1.14,1.14,0,0,0-1,.42,2.06,2.06,0,0,1-.25.26l-1.52,1.52c-.14.15-.25.21-.42.05a1.32,1.32,0,0,0-.35-.23,2.52,2.52,0,1,0,1.25,1.64.69.69,0,0,1,.23-.76c.53-.51,1.06-1,1.55-1.56a1,1,0,0,1,.83-.33H53.85a.17.17,0,0,1,.19.19v.31q0,8.13,0,16.25a1,1,0,0,1-.33.77c-.71.69-1.42,1.39-2.1,2.11a.67.67,0,0,1-.69.24,2.5,2.5,0,1,0-.58,5,2.51,2.51,0,0,0,2.57-2.07,2.59,2.59,0,0,0-.74-2.29L54.76,163a.79.79,0,0,0,.28-.63q0-8.91,0-17.82C55,144.09,55,144.09,54.58,144.09Z"/><path class="cls-9" d="M112.09,146a.48.48,0,0,1-.63-.12c-.48-.51-1-1-1.46-1.49a1,1,0,0,0-.83-.34H75.06c-.53,0-.56-.12-.56.51q0,8.85,0,17.71a.86.86,0,0,0,.28.69c.56.54,1.11,1.1,1.66,1.65l.74.74-.39.41a2.51,2.51,0,1,0,4.35,1,2.41,2.41,0,0,0-2.52-1.9.93.93,0,0,1-.81-.33c-.64-.66-1.29-1.32-2-2a1.07,1.07,0,0,1-.37-.86c0-5.34,0-10.69,0-16,0-.75-.11-.65.67-.65h32.5a2.25,2.25,0,0,0,.26,0,.63.63,0,0,1,.59.25c.34.37.71.71,1.06,1.08.14.14.38.25.39.46s-.13.31-.2.47a2.51,2.51,0,0,0,4.33,2.46,2.47,2.47,0,0,0-.26-3.29A2.38,2.38,0,0,0,112.09,146Z"/><path class="cls-10" d="M51.59,104.77a1.21,1.21,0,0,1,.95-.4H99.93c.13,0,.25,0,.37,0a.3.3,0,0,1,.37.27,1.82,1.82,0,0,0,.19.43,2.5,2.5,0,0,0,2.94,1.2,2.5,2.5,0,0,0-.31-4.86,2.49,2.49,0,0,0-2.77,1.56c-.17.41-.17.41-.63.42h-.31q-23.61,0-47.24,0a2.09,2.09,0,0,0-1.67.69c-2,2.08-4.1,4.12-6.16,6.18-.34.34-.34.34-.77.15a2.44,2.44,0,0,0-1.78-.13,2.49,2.49,0,0,0-1.67,3.19A2.52,2.52,0,0,0,43.7,115a2.46,2.46,0,0,0,1.5-3.26.61.61,0,0,1,.18-.79Q48.5,107.89,51.59,104.77Z"/><path class="cls-11" d="M33.89,67.77a2.52,2.52,0,0,0,1.43-3.31c-.2-.51-.2-.51.2-.89l6.14-6a1.17,1.17,0,0,1,.92-.38H89.86c.14,0,.28,0,.42,0a.24.24,0,0,1,.3.21,2.49,2.49,0,0,0,.11.29,2.51,2.51,0,1,0,0-2c-.21.48-.21.48-.73.48H42.14a1.1,1.1,0,0,0-.87.35c-2.19,2.14-4.4,4.26-6.59,6.41a.52.52,0,0,1-.71.11,2.32,2.32,0,0,0-1.64-.1,2.51,2.51,0,1,0,1.56,4.76Z"/><path class="cls-12" d="M110.74,96.48c-.17.42-.17.42-.61.42-2.22,0-4.43,0-6.64,0a2.08,2.08,0,0,1-1.64-.67q-8.5-8.18-17-16.33a1,1,0,0,0-.77-.35c-2.69.1-5.39.17-8.09.26l-7.57.24c-.2,0-.33,0-.39-.25a1.48,1.48,0,0,0-.12-.29,2.5,2.5,0,1,0-2.32,3.61A2.46,2.46,0,0,0,68,81.45.47.47,0,0,1,68.5,81q7.5-.2,15-.44a1.21,1.21,0,0,1,1,.37l17.32,16.58a1.08,1.08,0,0,0,.88.34c2.49,0,5,0,7.47,0,.45,0,.45,0,.62.42a2.52,2.52,0,0,0,2.45,1.58,3.74,3.74,0,0,0,.64-.1,2.54,2.54,0,0,0,1.76-2.55,2.52,2.52,0,0,0-4.85-.76Z"/><path class="cls-13" d="M27.92,80.74a2.48,2.48,0,0,0,2.16-2.54.72.72,0,0,1,.3-.65q7.11-6.24,14.22-12.48a1.23,1.23,0,0,1,.88-.34H72.33a.78.78,0,0,1,.75.4,2.47,2.47,0,0,0,3.1.85A2.51,2.51,0,0,0,75,61.19a2.5,2.5,0,0,0-2.39,2.15c-.06.39-.06.39-.44.4H45.14a1.28,1.28,0,0,0-.93.34q-7,6.21-14.1,12.38l-.44.37a4.54,4.54,0,0,0-.38-.38,2.42,2.42,0,0,0-2.47-.56,2.5,2.5,0,0,0,1.1,4.86Z"/><path class="cls-14" d="M39.58,100.61a2.51,2.51,0,0,0,2.83-2.34c0-.38.05-.38.42-.39H91.06c.49,0,.48,0,.69.47A2.45,2.45,0,0,0,94,99.89a2.86,2.86,0,0,0,.82-.12,2.51,2.51,0,1,0-3.1-3.38c0,.1-.07.2-.1.3a.26.26,0,0,1-.3.22H42.62a.86.86,0,0,1-.79-.36A2.29,2.29,0,0,0,40,95.63a2.5,2.5,0,0,0-.4,5Z"/><path class="cls-15" d="M72.66,119.65q6.63-5.19,13.22-10.4a1.59,1.59,0,0,1,1-.36h23.41a.3.3,0,0,1,.37.27,1.17,1.17,0,0,0,.09.24,2.51,2.51,0,1,0,1.54-3.41,2.35,2.35,0,0,0-1.59,1.53.46.46,0,0,1-.57.37c-.1,0-.2,0-.31,0H86.56a1.57,1.57,0,0,0-1,.36q-6.72,5.31-13.46,10.6c-.41.33-.41.32-.84,0A2.51,2.51,0,0,0,67.29,121a5.17,5.17,0,0,0,.09.64,2.51,2.51,0,0,0,2.88,1.77,2.41,2.41,0,0,0,2-2.79A.88.88,0,0,1,72.66,119.65Z"/><path class="cls-16" d="M38.67,52.19a2.46,2.46,0,0,0,3-1.14.68.68,0,0,1,.72-.41H81.74a1.11,1.11,0,0,0,.87-.35c1.54-1.57,3.1-3.11,4.65-4.66l.26-.26a.23.23,0,0,1,.36,0,1.57,1.57,0,0,0,.31.18,2.4,2.4,0,0,0,2.73-.32,2.36,2.36,0,0,0,.8-2.59A2.5,2.5,0,1,0,86.93,44a.6.6,0,0,1-.18.71Q84.44,47,82.17,49.33a1.12,1.12,0,0,1-.87.35H42.54c-.12,0-.24,0-.37,0a.21.21,0,0,1-.23-.22,1.59,1.59,0,0,0-.06-.3,2.5,2.5,0,0,0-4.9.4A2.5,2.5,0,0,0,38.67,52.19Z"/><path class="cls-17" d="M14.73,127.51a2.5,2.5,0,0,0,.43,5,2.37,2.37,0,0,0,2.31-1.57.46.46,0,0,1,.54-.34h.2q21,0,42,0a.84.84,0,0,1,.88.51A2.43,2.43,0,0,0,64,132.19a2.5,2.5,0,0,0-.49-4.87,2.48,2.48,0,0,0-2.66,1.73c-.16.5-.16.5-.69.5H18.32c-.12,0-.25,0-.37,0s-.37,0-.39-.29a.49.49,0,0,0-.07-.19A2.48,2.48,0,0,0,14.73,127.51Z"/><path class="cls-18" d="M82.9,35.84q-1.74,2.44-3.44,4.93a.83.83,0,0,1-.81.42H67a.8.8,0,0,1-.62-.2c-1.08-1-2.17-2.06-3.27-3.07-.2-.19-.18-.31-.06-.53a2.39,2.39,0,0,0,.19-1.87,2.5,2.5,0,1,0-1.49,3,.56.56,0,0,1,.72.13c1.12,1.08,2.26,2.12,3.38,3.2a1,1,0,0,0,.78.31H79.22a.81.81,0,0,0,.76-.41c1.21-1.76,2.44-3.51,3.67-5.27.27-.39.27-.39.73-.25a2.51,2.51,0,0,0,1.68-4.73,2.55,2.55,0,0,0-2.83.64,2.46,2.46,0,0,0-.31,2.91A.58.58,0,0,1,82.9,35.84Z"/><path class="cls-19" d="M74.59,92.9a.72.72,0,0,1-.71.38c-1.85,0-3.69,0-5.54,0H62.7A.88.88,0,0,1,62,93c-1-1.06-2.08-2.11-3.14-3.14a.57.57,0,0,1-.15-.75,2.41,2.41,0,0,0-.49-2.58,2.37,2.37,0,0,0-2.48-.72A2.33,2.33,0,0,0,54,87.69a2.37,2.37,0,0,0,.9,2.51,2.41,2.41,0,0,0,2.65.28c.4-.19.4-.19.72.13,1.11,1.11,2.23,2.21,3.32,3.33a1.09,1.09,0,0,0,.87.35c4,0,8,0,12,0a.77.77,0,0,0,.79-.42c.77-1.26,1.59-2.5,2.34-3.77a.83.83,0,0,1,1-.47,2.5,2.5,0,0,0,.73-4.93,2.5,2.5,0,0,0-2.65,1.16,2.46,2.46,0,0,0,.21,2.87.44.44,0,0,1,0,.63C76.05,90.53,75.31,91.71,74.59,92.9Z"/><path class="cls-20" d="M72,164.94a.49.49,0,0,1-.58-.36c-1.22-2.71-2.45-5.41-3.69-8.12a1.11,1.11,0,0,1-.09-.74c.5-2.46,1-4.91,1.47-7.37a1,1,0,0,1,.56-.78,2.48,2.48,0,0,0,1.09-3.23A2.53,2.53,0,0,0,67.59,143a2.52,2.52,0,0,0,.15,4.77c.42.13.42.13.34.58-.49,2.42-1,4.84-1.46,7.26a1.7,1.7,0,0,0,.13,1.15c1.25,2.69,2.47,5.4,3.71,8.11.21.46.21.46-.13.82a2.51,2.51,0,1,0,4.34,1.68,3.11,3.11,0,0,0-.08-.64A2.44,2.44,0,0,0,72,164.94Z"/><path class="cls-21" d="M63.43,147.62a2.5,2.5,0,0,0,1.17-3.25,2.51,2.51,0,0,0-4.81,1,2.45,2.45,0,0,0,1.75,2.34.58.58,0,0,1,.47.52q.72,3.72,1.48,7.42a1.23,1.23,0,0,1-.09.8q-1.83,4-3.63,8a1,1,0,0,1-.65.59,2.47,2.47,0,0,0-1.7,2.63,2.51,2.51,0,1,0,3.63-2.51l-.42-.19.2-.43q1.8-4,3.61-7.92a1.16,1.16,0,0,0,.1-.8c-.51-2.49-1-5-1.49-7.47C63,147.86,63,147.86,63.43,147.62Z"/><path class="cls-22" d="M53.29,116.5l4.7-3.91a1.37,1.37,0,0,1,.64-.31c1.21-.25,2.41-.52,3.62-.78l6.46-1.38a.88.88,0,0,1,.2.38,2.51,2.51,0,0,0,4.79-1.25A2.53,2.53,0,0,0,71.54,107a2.49,2.49,0,0,0-2.71,1.73.64.64,0,0,1-.57.49l-10,2.14a1.73,1.73,0,0,0-.73.36l-5,4.16a.72.72,0,0,1-.78.17A2.5,2.5,0,1,0,53,119.86a2.42,2.42,0,0,0,.15-2.71C53,116.77,53,116.77,53.29,116.5Z"/><path class="cls-23" d="M94.29,63.2a2.45,2.45,0,0,0-3.19-1.3,2.51,2.51,0,1,0,3.27,3.23c.16-.39.16-.39.58-.39h.79a8.84,8.84,0,0,0,.89,0,.49.49,0,0,1,.51.32q3.17,6.09,6.36,12.16c.13.25.12.41-.12.56a1.23,1.23,0,0,0-.26.25,2.43,2.43,0,0,0-.43,2.64,2.34,2.34,0,0,0,2.13,1.52,2.5,2.5,0,1,0,.2-5,.6.6,0,0,1-.63-.39c-.66-1.32-1.36-2.62-2-3.93-1.51-2.9-3-5.8-4.53-8.7a.66.66,0,0,0-.72-.43c-.65,0-1.29,0-1.94,0A.74.74,0,0,1,94.29,63.2Z"/><path class="cls-24" d="M107,85.3l-6.08-.62a1.26,1.26,0,0,1-.77-.38c-.85-.82-1.72-1.62-2.58-2.43L93.8,78.36a.43.43,0,0,1-.16-.58A1.88,1.88,0,0,0,93.8,77c0-.19,0-.38-.08-.56a2.5,2.5,0,1,0-1.18,2.73c.38-.21.38-.22.72.1,2.14,2,4.29,4,6.43,6.06a1.09,1.09,0,0,0,.72.34l6.5.65a.65.65,0,0,1,.63.47,2.45,2.45,0,0,0,2.9,1.54,2.49,2.49,0,0,0,1.93-2.53,2.5,2.5,0,0,0-4.83-.84C107.36,85.34,107.36,85.34,107,85.3Z"/><path class="cls-25" d="M24.73,95.11a2.51,2.51,0,0,0,1.79-3.17c-.14-.45-.14-.45.23-.75l12.19-9.92a.71.71,0,0,1,.79-.15A2.48,2.48,0,0,0,43,78.72a2.55,2.55,0,0,0-.1-.72,2.51,2.51,0,1,0-4.62,1.9c.22.44.22.44-.17.77L34,84q-3.94,3.21-7.9,6.41c-.33.27-.33.27-.7.06a2.51,2.51,0,1,0-.64,4.61Z"/><path class="cls-26" d="M51.92,33.71a2.52,2.52,0,0,0,2.94-1.66,3.15,3.15,0,0,0,.12-.67c0-.2.1-.26.29-.28l1.24-.16c2.22-.29,4.44-.6,6.67-.88a1.37,1.37,0,0,0,.85-.43l4.57-4.58a.55.55,0,0,1,.71-.16,2.49,2.49,0,0,0,3.37-2.39,2.53,2.53,0,0,0-.08-.59,2.42,2.42,0,0,0-1.9-1.81,2.37,2.37,0,0,0-2.5.91,2.4,2.4,0,0,0-.27,2.65c.11.22.28.39,0,.66-1.52,1.48-3,3-4.51,4.5a.9.9,0,0,1-.55.27c-2.57.33-5.13.68-7.7,1a.56.56,0,0,1-.64-.28,2.39,2.39,0,0,0-2.08-1.08,2.51,2.51,0,0,0-.53,4.95Z"/><path class="cls-27" d="M11,125.85a2.55,2.55,0,0,0,2.41-2A2.52,2.52,0,0,0,11.86,121c-.43-.18-.43-.18-.43-.66,0-1.93,0-3.86,0-5.8a1.81,1.81,0,0,1,.26-.93c1.64-2.82,3.27-5.66,4.9-8.49l.42-.72c.07-.11.11-.22,0-.3.05-.21.19-.14.32-.12a2.36,2.36,0,0,0,1.09,0,2.51,2.51,0,1,0-3.12-2,2.41,2.41,0,0,0,.81,1.42c.13.12.27.22.15.43s-.11.13-.15.2q-2.73,4.73-5.45,9.44a1.32,1.32,0,0,0-.17.7v6.26c0,.3,0,.51-.37.56a.46.46,0,0,0-.19.08,2.51,2.51,0,0,0-1.39,2.86A2.55,2.55,0,0,0,11,125.85Z"/><path class="cls-28" d="M36.15,125.38H28.29a7.21,7.21,0,0,0-.09-.89,2.51,2.51,0,1,0-3.64,2.77,2.47,2.47,0,0,0,3-.52.92.92,0,0,1,.8-.35c2.82,0,5.64,0,8.46,0,.6,0,.55.06.55-.57,0-1.3,0-2.61,0-3.92a.48.48,0,0,1,.34-.54,2.4,2.4,0,0,0,1.45-2A2.51,2.51,0,1,0,36,121.48l.25.07c.15,0,.2.1.2.25v3.34C36.4,125.33,36.32,125.39,36.15,125.38Z"/><path class="cls-29" d="M56.9,23.09a2.41,2.41,0,0,0,.59,2.9,2.55,2.55,0,0,0,3,.28,2.51,2.51,0,0,0-2.21-4.49c-.38.14-.38.14-.62-.19-.7-1-1.4-1.95-2.09-2.93-.24-.34-.31-.28.09-.6l5-4,.16-.13a.19.19,0,0,1,.28,0,2,2,0,0,0,.29.22,2.51,2.51,0,1,0,.86-4.52,2.47,2.47,0,0,0-1.91,2.9.64.64,0,0,1-.28.74c-1.52,1.19-3,2.4-4.55,3.6l-1.55,1.23c1,1.37,1.91,2.69,2.87,4A.8.8,0,0,1,56.9,23.09Z"/><path class="cls-30" d="M65.85,5a.68.68,0,0,1,.85.39l6.1,9.3c.23.34.22.34,0,.7A2.44,2.44,0,0,0,72.61,18a2.4,2.4,0,0,0,2.19,1.34,3,3,0,0,0,.74-.1,2.5,2.5,0,0,0,1.73-3,2.44,2.44,0,0,0-2.84-1.87.73.73,0,0,1-.89-.41q-3-4.59-6-9.16a.64.64,0,0,1,0-.89A2.39,2.39,0,0,0,67.44,1,2.47,2.47,0,0,0,64.75.1,2.5,2.5,0,0,0,63,3,2.45,2.45,0,0,0,65.85,5Z"/><path class="cls-31" d="M128.07,137.82a2.52,2.52,0,0,0-2.78,1.54c-.17.42-.17.42-.62.42h-6.26c-.26,0-.44,0-.49-.32a.62.62,0,0,0-.07-.19,2.51,2.51,0,1,0,0,1.95c.17-.42.17-.43.62-.43h6.11c.49,0,.49,0,.69.47a2.51,2.51,0,1,0,2.76-3.44Z"/><path class="cls-32" d="M30.55,112.1a2.49,2.49,0,0,0-3.84,1.13c-.18.47-.2.39-.59.4H21c-.27,0-.48,0-.51-.35a.84.84,0,0,0-.08-.2,2.51,2.51,0,1,0-2.63,3.51A2.43,2.43,0,0,0,20.46,115a.48.48,0,0,1,.57-.37h5.11c.41,0,.41,0,.58.42a2.51,2.51,0,1,0,3.83-2.93Z"/><path class="cls-33" d="M76.31,25.4a2.68,2.68,0,0,0,.21,2L77,28a2.69,2.69,0,0,0,2.25.56,2.51,2.51,0,1,0-3-3.2Z"/><path class="cls-34" d="M47.66,38.73a3,3,0,0,0,1.7-.56c0,.15.13.23.23.33l3.9,4a1.16,1.16,0,0,0,.36.3c-.07.17-.14.35-.2.53A2.51,2.51,0,1,0,56,41.54a2.92,2.92,0,0,0-1.62.62.42.42,0,0,0-.16-.25q-2-2-3.94-4c-.12-.12-.22-.28-.43-.26a2.76,2.76,0,0,0,.42-1.58,2.5,2.5,0,1,0-2.56,2.63Z"/><path class="cls-35" d="M74,29.51c-.16.14-.38.25-.41.5a2.83,2.83,0,0,0-1.72-.64,2.51,2.51,0,1,0,2.39,3.21,2.57,2.57,0,0,0-.2-1.92,1.41,1.41,0,0,1,.36-.37l2.19-1.84c.14-.12.32-.21.38-.41l-.49-.62Z"/></g></g></svg>